<mxfile host="app.diagrams.net" modified="2021-01-04T15:42:57.439Z" agent="5.0 (X11; Linux x86_64) AppleWebKit/537.36 (KHTML, like Gecko) Chrome/87.0.4280.66 Safari/537.36" etag="AiGocmXTvJXh1nfPUOlo" version="14.1.8" type="github">
  <diagram id="UuRohorqPwtbrjXl8lV8" name="Page-1">
    <mxGraphModel dx="315" dy="166" grid="1" gridSize="10" guides="1" tooltips="1" connect="1" arrows="1" fold="1" page="1" pageScale="1" pageWidth="827" pageHeight="1169" math="0" shadow="0">
      <root>
        <mxCell id="0" />
        <mxCell id="1" parent="0" />
        <mxCell id="GnWuBYMGJTiQK1Nmhagq-1" value="Obstacle" style="rounded=1;whiteSpace=wrap;html=1;" vertex="1" parent="1">
          <mxGeometry x="350" y="340" width="120" height="60" as="geometry" />
        </mxCell>
        <mxCell id="GnWuBYMGJTiQK1Nmhagq-3" value="" style="endArrow=classic;html=1;strokeColor=#FF0000;" edge="1" parent="1">
          <mxGeometry width="50" height="50" relative="1" as="geometry">
            <mxPoint x="300" y="450" as="sourcePoint" />
            <mxPoint x="350" y="400" as="targetPoint" />
          </mxGeometry>
        </mxCell>
        <mxCell id="GnWuBYMGJTiQK1Nmhagq-4" value="&lt;font style=&quot;font-size: 8px&quot; color=&quot;#0000ff&quot;&gt;orthogonal move&lt;/font&gt;" style="endArrow=classic;html=1;strokeColor=#3333FF;verticalAlign=bottom;" edge="1" parent="1">
          <mxGeometry x="1" y="-14" width="50" height="50" relative="1" as="geometry">
            <mxPoint x="300" y="450" as="sourcePoint" />
            <mxPoint x="270" y="420" as="targetPoint" />
            <Array as="points" />
            <mxPoint as="offset" />
          </mxGeometry>
        </mxCell>
        <mxCell id="GnWuBYMGJTiQK1Nmhagq-5" value="&lt;font color=&quot;#00cc00&quot; style=&quot;font-size: 8px&quot;&gt;step back&lt;/font&gt;" style="endArrow=classic;html=1;strokeColor=#00CC66;verticalAlign=bottom;" edge="1" parent="1">
          <mxGeometry x="0.3333" y="28" width="50" height="50" relative="1" as="geometry">
            <mxPoint x="300" y="450" as="sourcePoint" />
            <mxPoint x="270" y="480" as="targetPoint" />
            <mxPoint as="offset" />
          </mxGeometry>
        </mxCell>
        <mxCell id="GnWuBYMGJTiQK1Nmhagq-6" value="&lt;font color=&quot;#ff0000&quot; style=&quot;font-size: 8px&quot;&gt;laser beam&lt;/font&gt;" style="endArrow=none;dashed=1;html=1;dashPattern=1 3;strokeWidth=2;strokeColor=#FFFFFF;verticalAlign=top;" edge="1" parent="1">
          <mxGeometry x="0.765" y="2" width="50" height="50" relative="1" as="geometry">
            <mxPoint x="420.0577777777777" y="480" as="sourcePoint" />
            <mxPoint x="350" y="400" as="targetPoint" />
            <mxPoint as="offset" />
          </mxGeometry>
        </mxCell>
        <mxCell id="GnWuBYMGJTiQK1Nmhagq-9" value="" style="endArrow=none;dashed=1;html=1;dashPattern=1 3;strokeWidth=2;strokeColor=#FFFFFF;verticalAlign=top;" edge="1" parent="1">
          <mxGeometry x="0.6" y="-14" width="50" height="50" relative="1" as="geometry">
            <mxPoint x="300" y="450" as="sourcePoint" />
            <mxPoint x="414" y="485.3996040833754" as="targetPoint" />
            <mxPoint as="offset" />
          </mxGeometry>
        </mxCell>
        <mxCell id="GnWuBYMGJTiQK1Nmhagq-10" value="" style="endArrow=none;dashed=1;html=1;dashPattern=1 3;strokeWidth=2;strokeColor=#FFFFFF;" edge="1" parent="1" source="GnWuBYMGJTiQK1Nmhagq-11">
          <mxGeometry width="50" height="50" relative="1" as="geometry">
            <mxPoint x="300" y="450" as="sourcePoint" />
            <mxPoint x="340" y="410" as="targetPoint" />
            <Array as="points" />
          </mxGeometry>
        </mxCell>
        <mxCell id="GnWuBYMGJTiQK1Nmhagq-11" value="" style="ellipse;whiteSpace=wrap;html=1;aspect=fixed;" vertex="1" parent="1">
          <mxGeometry x="290" y="440" width="20" height="20" as="geometry" />
        </mxCell>
        <mxCell id="GnWuBYMGJTiQK1Nmhagq-12" value="&lt;font style=&quot;font-size: 8px&quot;&gt;drone&lt;/font&gt;" style="endArrow=none;dashed=1;html=1;dashPattern=1 3;strokeWidth=2;strokeColor=#FFFFFF;" edge="1" parent="1" target="GnWuBYMGJTiQK1Nmhagq-11">
          <mxGeometry x="-0.3926" y="-14" width="50" height="50" relative="1" as="geometry">
            <mxPoint x="300" y="450" as="sourcePoint" />
            <mxPoint x="350" y="400" as="targetPoint" />
            <Array as="points">
              <mxPoint x="320" y="430" />
            </Array>
            <mxPoint as="offset" />
          </mxGeometry>
        </mxCell>
      </root>
    </mxGraphModel>
  </diagram>
</mxfile>
